<?xml version="1.0" encoding="UTF-8" standalone="no"?>
<!-- Created with Inkscape (http://www.inkscape.org/) -->

<svg
   width="210mm"
   height="297mm"
   viewBox="0 0 210 297"
   version="1.1"
   id="svg829"
   inkscape:version="1.1.2 (b8e25be833, 2022-02-05)"
   sodipodi:docname="drawing2.svg"
   xmlns:inkscape="http://www.inkscape.org/namespaces/inkscape"
   xmlns:sodipodi="http://sodipodi.sourceforge.net/DTD/sodipodi-0.dtd"
   xmlns="http://www.w3.org/2000/svg"
   xmlns:svg="http://www.w3.org/2000/svg">
  <sodipodi:namedview
     id="namedview831"
     pagecolor="#ffffff"
     bordercolor="#666666"
     borderopacity="1.0"
     inkscape:pageshadow="2"
     inkscape:pageopacity="0.0"
     inkscape:pagecheckerboard="0"
     inkscape:document-units="mm"
     showgrid="false"
     showguides="false"
     inkscape:snap-nodes="false"
     inkscape:zoom="0.26124924"
     inkscape:cx="354.06802"
     inkscape:cy="451.67596"
     inkscape:window-width="1024"
     inkscape:window-height="705"
     inkscape:window-x="-8"
     inkscape:window-y="-8"
     inkscape:window-maximized="1"
     inkscape:current-layer="layer1" />
  <defs
     id="defs826">
    <rect
       x="-575.45262"
       y="523.84252"
       width="268.37252"
       height="139.34727"
       id="rect4214" />
  </defs>
  <g
     inkscape:label="Layer 1"
     inkscape:groupmode="layer"
     id="layer1">
    <path
       id="path9610"
       style="font-size:139.264px;line-height:1.25;font-family:Century;-inkscape-font-specification:'Century, Normal';font-variant-ligatures:none;stroke-width:16.4484"
       d="M 323.61328 17.630859 C 298.0675 17.630859 277.06537 31.565877 260.60547 59.433594 C 244.27723 87.07857 236.11328 122.63744 236.11328 166.11133 C 236.11328 207.80153 244.34282 240.0157 260.80273 262.75586 C 272.52219 278.80776 294.51204 293.29995 326.77344 306.23047 C 356.13792 317.82354 375.82442 327.7452 385.83203 335.99414 C 395.83967 344.02009 403.1471 354.05104 407.75586 366.08984 C 412.36464 377.90589 414.66992 391.72966 414.66992 407.55859 C 414.66992 435.42631 408.48137 459.17004 396.10352 478.78906 C 383.85734 498.18509 367.98853 507.88281 348.5 507.88281 C 324.40271 507.88281 302.74275 492.61148 283.51758 462.06836 C 264.2924 431.52524 251.91334 389.83365 246.38281 336.99609 L 232.16211 336.99609 L 232.16211 528.61523 L 246.38281 528.61523 L 268.70312 482.4668 C 288.60946 511.98177 311.68004 528.28504 337.9082 531.39844 L 338.05664 532.07031 C 341.20903 532.45212 344.40462 532.6543 347.64844 532.6543 C 358.365 532.6543 368.31967 530.51564 377.51758 526.25195 L 377.3457 525.48047 C 392.15287 518.56993 404.99166 506.13391 415.85547 488.15234 C 433.63217 458.72393 442.51953 421.71531 442.51953 377.12695 C 442.51953 352.15738 439.29408 330.42033 432.8418 311.91602 C 426.38951 293.18896 416.57808 277.69369 403.41016 265.43164 C 390.37391 253.16985 367.59508 241.01927 335.07031 228.98047 C 311.89478 220.50853 296.09155 212.59526 287.66406 205.23828 C 279.36827 197.65806 273.11411 187.95839 268.90039 176.14258 C 264.68665 164.10352 262.58008 150.17071 262.58008 134.3418 C 262.58008 108.92649 268.11081 87.411427 279.17188 69.798828 C 290.23292 52.186482 304.45427 43.380859 321.83594 43.380859 C 342.64125 43.380859 361.01018 56.088347 376.94336 81.503906 C 393.00824 106.91921 405.123 147.2728 413.28711 202.5625 L 426.32227 202.5625 L 425.13867 22.3125 L 410.71875 22.3125 L 392.94336 65.453125 C 381.09222 48.286511 369.63528 36.024945 358.57422 28.667969 C 347.51318 21.31074 335.85945 17.630859 323.61328 17.630859 z "
       transform="scale(0.26458333)" />
    <path
       id="path9612"
       style="font-size:139.264px;line-height:1.25;font-family:Century;-inkscape-font-specification:'Century, Normal';font-variant-ligatures:none;fill:#008000;stroke-width:16.4484"
       d="M 232.16211 311.91602 L 232.16211 336.99609 L 257.04883 336.99609 C 265.34462 336.99609 271.00653 339.00266 274.03516 343.01562 C 277.06378 346.80565 278.57812 352.93638 278.57812 361.4082 L 278.57812 702.51172 C 278.57812 730.82544 275.35267 750.55406 268.90039 761.70117 C 262.44811 772.84831 250.20216 779.42517 232.16211 781.43164 L 232.16211 806.51367 L 342.37695 806.51367 L 342.37695 781.43164 C 328.81399 780.09399 319.0701 776.63997 313.14453 771.06641 C 307.35064 765.2699 302.87319 757.13258 299.71289 746.6543 C 296.55259 735.95304 294.97266 719.90053 294.97266 698.49805 L 294.97266 512.67773 C 289.4263 508.05323 284.07386 502.62343 278.91211 496.39258 L 278.91211 454.33398 C 280.51056 457.22045 282.14328 460.05085 283.84961 462.76172 C 287.46983 468.51316 291.17949 473.70742 294.97266 478.375 L 294.97266 339.00391 L 398.86719 806.51367 L 412.29883 806.51367 L 508.88672 336.99609 L 508.88672 757.01953 C 508.88672 764.15369 507.17367 770.06234 503.75 774.74414 C 500.32635 779.20298 495.0599 781.43164 487.94922 781.43164 L 463.0625 781.43164 L 463.0625 806.51367 L 596.58398 806.51367 L 596.58398 781.43164 L 574.26562 781.43164 C 565.5748 781.43164 559.44988 779.31402 555.89453 775.07812 C 552.33921 770.84221 550.5625 764.82252 550.5625 757.01953 L 550.5625 365.42188 C 550.5625 354.94357 552.01127 347.58552 554.9082 343.34961 C 557.93684 339.1137 563.72992 336.99609 572.28906 336.99609 L 596.58398 336.99609 L 596.58398 311.91602 L 497.03516 311.91602 L 416.64453 702.51172 L 329.53906 311.91602 L 232.16211 311.91602 z "
       transform="scale(0.26458333)" />
  </g>
</svg>
